<svg id="Layer_1" data-name="Layer 1" xmlns="http://www.w3.org/2000/svg" viewBox="0 0 702.72 619.14"><defs><style>.cls-1{fill:none;stroke:#231f20;stroke-miterlimit:10;stroke-width:1.3px;}.cls-2{fill:#231f20;}</style></defs><path class="cls-1" d="M180.67,485.79l88.88-209.62.36.48L389.72,433.81l-.46.12Zm89.09-208.28-88.1,207.38,207-51.46Z" transform="translate(-39.13 -124.67)"/><path class="cls-1" d="M389.25,434.25l-.33-.44L269.06,276.57l.57-.05,201.84-10.91-.21.48Zm-119-157.14L389.1,433l81.36-166.66Z" transform="translate(-39.13 -124.67)"/><path class="cls-1" d="M471.53,266.24l-.54.05L268.82,277.23l.61-.61,124.33-57.23.22.33Zm-201,10.21L470.41,265.7l-76.75-45.3Z" transform="translate(-39.13 -124.67)"/><path class="cls-1" d="M607.1,444.51l-.62.08L388.67,434l.22-.51,82-168.09.33.35ZM389.69,433.23,605.78,444,471.07,266.54Z" transform="translate(-39.13 -124.67)"/><path class="cls-1" d="M486.39,633.75l-.33-.46L388.61,433.37,607,443.93l-.22.51ZM389.75,433.87l96.49,198.58L605.94,444.7Z" transform="translate(-39.13 -124.67)"/><path class="cls-1" d="M328.42,637l-.38-.39L180.55,485.17l.54-.14,208.6-51.62-.16.53ZM181.78,485.52,328.12,635.73l60.64-201.44Z" transform="translate(-39.13 -124.67)"/><path class="cls-1" d="M230.29,645.46l0-.37-49.5-160.63.65.66L328.88,636.51l-.53.14Zm-48.7-159.24,49.25,158.44,96.81-8.49Z" transform="translate(-39.13 -124.67)"/><path class="cls-1" d="M397.35,740.77,229.49,645l1-.26L328.41,636l.12.19ZM231.64,645.11l164.12,94.41L328.13,636.71Z" transform="translate(-39.13 -124.67)"/><path class="cls-1" d="M396.49,740.62l-68.8-104.57.56,0,159-3.28-.7.6Zm-67.65-104,67.78,103,88.79-106.21Z" transform="translate(-39.13 -124.67)"/><path class="cls-1" d="M395.26,740.84l1.09-.94,90-107.25.2.25,63.24,15.88-.47.13Zm91-107.28L397.86,739.44l150.83-91Z" transform="translate(-39.13 -124.67)"/><path class="cls-1" d="M549.26,649.13l-.27-.33-63.1-15.45.35-.18,186.31-78.9-.72,1Zm-62.38-15.57,62.34,14.52L670.59,556Z" transform="translate(-39.13 -124.67)"/><path class="cls-1" d="M231,646.24,83.56,504.29,181.45,485l0,.35ZM84.64,504.72,230.12,643.88,180.89,485.72Z" transform="translate(-39.13 -124.67)"/><path class="cls-1" d="M181.64,485.58,83.72,504.9l.07-.44,24.08-168.6ZM84.48,504.11l96.22-19L108.21,338Z" transform="translate(-39.13 -124.67)"/><path class="cls-1" d="M181.22,486.16l-.34-.68-73.26-148.7.28-.14L270.22,276.2,270,277Zm-72.75-149.1,72.65,147.46,88-207Z" transform="translate(-39.13 -124.67)"/><path class="cls-1" d="M486.92,633.39l-.59,0-158.5,3.26.13-.43,61.19-203.12.38.52ZM328.7,636l157-3.19L389.39,434.55Z" transform="translate(-39.13 -124.67)"/><path class="cls-1" d="M485.68,633.77,486,633,606.63,444.13l.27.8L672,555.28l-.24.13ZM606.55,445.94,487,632.43,671.18,555Z" transform="translate(-39.13 -124.67)"/><path class="cls-1" d="M672.71,556.82,606,444l131.09-78.39.31.06ZM606.86,444.51l65.69,109.76L736.72,366Z" transform="translate(-39.13 -124.67)"/><path class="cls-1" d="M607.26,446.21l-.9-1-136-179.52,129.92,21.72.08.26Zm-135.64-180L605.93,443.86l-6.16-155.71Z" transform="translate(-39.13 -124.67)"/><path class="cls-1" d="M737.3,366.25,606.22,444.64l-6.94-158.21ZM606.67,443.9l129.46-78.07L600.72,289.18Z" transform="translate(-39.13 -124.67)"/><path class="cls-1" d="M738.06,368.17l-1.59-1.93-137.37-79,73.64-92.27.06.14Z" transform="translate(-39.13 -124.67)"/><path class="cls-1" d="M269.42,277.3l-.08-.4-29.16-146,154.18,89.56ZM241.08,132.13l28.81,144.25,123.08-56Z" transform="translate(-39.13 -124.67)"/><path class="cls-1" d="M108.12,337.53l7.12-127.42.42.18,154.85,66.57-.74.28Zm7.71-126.47-7,125.53,160-59.77Z" transform="translate(-39.13 -124.67)"/><path class="cls-1" d="M270.09,277.37,114.86,210.64l.51-.33L240.85,131ZM116.22,210.53l153,65.78L240.41,132Z" transform="translate(-39.13 -124.67)"/><path class="cls-1" d="M43.66,366.68l.35-.77,71.94-157-7.18,128.35-.17.08Zm71.46-154.44L44.94,365.4l63.22-28.55Z" transform="translate(-39.13 -124.67)"/><path class="cls-1" d="M471.09,266.41l-78-46,148.83-92.32Zm-76.81-46,76.56,45.13,69.43-135.7Z" transform="translate(-39.13 -124.67)"/><path class="cls-1" d="M470.31,266.55l70.84-138.44L599.49,287.4l-.28.11ZM541,129.79l-69.38,135.6L598.71,287Z" transform="translate(-39.13 -124.67)"/><path class="cls-2" d="M676.27,556.19a4.54,4.54,0,1,1-4.54-4.54A4.54,4.54,0,0,1,676.27,556.19Z" transform="translate(-39.13 -124.67)"/><path class="cls-2" d="M605.66,287.8a6.17,6.17,0,1,1-6.17-6.17A6.17,6.17,0,0,1,605.66,287.8Z" transform="translate(-39.13 -124.67)"/><path class="cls-2" d="M476.48,266.41a6.17,6.17,0,1,1-6.17-6.16A6.17,6.17,0,0,1,476.48,266.41Z" transform="translate(-39.13 -124.67)"/><path class="cls-2" d="M613.13,444.13A6.17,6.17,0,1,1,607,438,6.17,6.17,0,0,1,613.13,444.13Z" transform="translate(-39.13 -124.67)"/><path class="cls-2" d="M394.84,434.25a6.17,6.17,0,1,1-6.17-6.17A6.17,6.17,0,0,1,394.84,434.25Z" transform="translate(-39.13 -124.67)"/><path class="cls-2" d="M276.68,277.37a6.17,6.17,0,1,1-6.17-6.17A6.17,6.17,0,0,1,276.68,277.37Z" transform="translate(-39.13 -124.67)"/><path class="cls-2" d="M113.79,337.53a6.17,6.17,0,1,1-6.17-6.17A6.17,6.17,0,0,1,113.79,337.53Z" transform="translate(-39.13 -124.67)"/><path class="cls-2" d="M187.72,485.79a6.17,6.17,0,1,1-6.17-6.17A6.17,6.17,0,0,1,187.72,485.79Z" transform="translate(-39.13 -124.67)"/><path class="cls-2" d="M335.05,637a6.17,6.17,0,1,1-6.17-6.17A6.17,6.17,0,0,1,335.05,637Z" transform="translate(-39.13 -124.67)"/><path class="cls-2" d="M491.85,632.74a6.17,6.17,0,1,1-6.17-6.17A6.17,6.17,0,0,1,491.85,632.74Z" transform="translate(-39.13 -124.67)"/><path class="cls-2" d="M741.85,365.64a4.55,4.55,0,1,1-4.55-4.54A4.55,4.55,0,0,1,741.85,365.64Z" transform="translate(-39.13 -124.67)"/><path class="cls-2" d="M676.33,196a4.54,4.54,0,1,1-4.54-4.54A4.54,4.54,0,0,1,676.33,196Z" transform="translate(-39.13 -124.67)"/><circle class="cls-2" cx="501.43" cy="4.54" r="4.54"/><path class="cls-2" d="M397.31,220.19a4.1,4.1,0,1,1-4.1-4.1A4.1,4.1,0,0,1,397.31,220.19Z" transform="translate(-39.13 -124.67)"/><path class="cls-2" d="M245.8,132.62a4.54,4.54,0,1,1-4.54-4.54A4.55,4.55,0,0,1,245.8,132.62Z" transform="translate(-39.13 -124.67)"/><path class="cls-2" d="M120.49,211a4.54,4.54,0,1,1-4.54-4.54A4.54,4.54,0,0,1,120.49,211Z" transform="translate(-39.13 -124.67)"/><path class="cls-2" d="M48.21,366.68a4.54,4.54,0,1,1-4.54-4.54A4.54,4.54,0,0,1,48.21,366.68Z" transform="translate(-39.13 -124.67)"/><path class="cls-2" d="M89.44,504.55A4.55,4.55,0,1,1,84.9,500,4.54,4.54,0,0,1,89.44,504.55Z" transform="translate(-39.13 -124.67)"/><path class="cls-2" d="M235.55,645.46a4.54,4.54,0,1,1-4.54-4.54A4.54,4.54,0,0,1,235.55,645.46Z" transform="translate(-39.13 -124.67)"/><path class="cls-2" d="M401.89,739.27a4.54,4.54,0,1,1-4.54-4.54A4.54,4.54,0,0,1,401.89,739.27Z" transform="translate(-39.13 -124.67)"/><path class="cls-2" d="M553.65,648.39a3.85,3.85,0,1,1-3.85-3.85A3.86,3.86,0,0,1,553.65,648.39Z" transform="translate(-39.13 -124.67)"/><rect class="cls-1" x="277.86" y="465.33" width="119.74" height="0.76" transform="translate(-233.61 122.64) rotate(-31.74)"/><rect class="cls-1" x="166.39" y="365.88" width="262.72" height="0.76" transform="translate(-131.23 507.72) rotate(-85.21)"/><rect class="cls-1" x="233.35" y="438.12" width="0.77" height="106.73" transform="translate(-318.98 546.84) rotate(-83.88)"/><rect class="cls-1" x="196.82" y="297.36" width="0.76" height="239.97" transform="translate(-284.72 162.3) rotate(-48.3)"/><rect class="cls-1" x="286.65" y="491.28" width="211.28" height="0.76" transform="translate(-64.32 -103.47) rotate(-3)"/><rect class="cls-1" x="339.54" y="482.33" width="0.76" height="205.14" transform="translate(-292.95 136) rotate(-31.2)"/><polygon class="cls-1" points="354.25 548.15 353.59 547.78 458.32 361.31 458.99 361.68 354.25 548.15"/><rect class="cls-1" x="484.04" y="265.73" width="0.76" height="221.24" transform="translate(-81.03 -63.41) rotate(-6.94)"/><rect class="cls-1" x="310.89" y="575.88" width="0.76" height="165.88" transform="translate(-429.32 731.35) rotate(-80.41)"/><rect class="cls-1" x="238.59" y="413.09" width="0.76" height="351.01" transform="translate(-431.31 391.87) rotate(-61.39)"/><rect class="cls-1" x="388.95" y="652.34" width="100.86" height="0.76" transform="translate(-261.32 102.12) rotate(-23.28)"/><rect class="cls-1" x="418.18" y="559.11" width="147.15" height="0.76" transform="matrix(0.08, -1, 1, 0.08, -145.12, 879.28)"/><polygon class="cls-1" points="573.84 414.63 458.5 361.84 458.82 361.15 574.16 413.94 573.84 414.63"/><rect class="cls-1" x="517.52" y="593.66" width="127.35" height="0.76" transform="translate(-263.28 674.52) rotate(-59.92)"/><rect class="cls-1" x="641.48" y="517.5" width="0.76" height="59.93" transform="translate(-104.52 882.68) rotate(-73.5)"/><rect class="cls-1" x="567.5" y="451.05" width="213.5" height="0.76" transform="translate(-121.18 620.73) rotate(-55.04)"/><rect class="cls-1" x="539.28" y="457.27" width="163.35" height="0.76" transform="translate(66.31 906.8) rotate(-84.45)"/><rect class="cls-1" x="549.54" y="225.36" width="0.76" height="192.17" transform="translate(-67.24 464.4) rotate(-55.15)"/><polygon class="cls-1" points="458.9 361.79 458.41 361.2 589.4 251.39 589.89 251.98 458.9 361.79"/><rect class="cls-1" x="557.86" y="285.56" width="186.17" height="0.76" transform="translate(178.27 724.78) rotate(-76.14)"/><rect class="cls-1" x="628.41" y="369.75" width="107.32" height="0.76" transform="translate(-77.61 -42.68) rotate(-6.69)"/><rect class="cls-1" x="465.01" y="230.66" width="214.16" height="0.76" transform="translate(-83.42 79.13) rotate(-19.46)"/><rect class="cls-1" x="133.3" y="198.8" width="148.99" height="0.76" transform="translate(-102.66 170.59) rotate(-63.29)"/><rect class="cls-1" x="91.97" y="301.25" width="98" height="0.76" transform="translate(-215.06 74.84) rotate(-47.09)"/><rect class="cls-1" x="172.63" y="250.17" width="137.76" height="0.76" transform="translate(-88.51 -65.12) rotate(-12.76)"/><rect class="cls-1" x="274.6" y="122.55" width="0.76" height="122.9" transform="translate(-94.99 56.41) rotate(-33.28)"/><rect class="cls-1" x="348.24" y="221.39" width="0.76" height="128.02" transform="translate(-141.02 155.05) rotate(-38.58)"/><rect class="cls-1" x="376.05" y="300.61" width="107.51" height="0.76" transform="translate(-132.15 220.76) rotate(-39.86)"/><rect class="cls-1" x="333.87" y="277.55" width="115.16" height="0.76" transform="translate(54.83 530.07) rotate(-87.08)"/><rect class="cls-1" x="388.22" y="335.44" width="0.76" height="98.81" transform="translate(-39.64 -124.15) rotate(-0.08)"/><rect class="cls-1" x="26.43" y="315.83" width="165.12" height="0.76" transform="translate(-209.58 7.76) rotate(-37.65)"/><polygon class="cls-1" points="46.13 380.02 45.41 379.75 134.84 140.93 135.56 141.2 46.13 380.02"/><rect class="cls-1" x="308.05" y="227.51" width="86.95" height="0.76" transform="translate(-73.04 -60.91) rotate(-9.89)"/><rect class="cls-1" x="479.69" y="141.86" width="0.76" height="172.07" transform="translate(172.24 561.71) rotate(-85.02)"/><rect class="cls-1" x="553.08" y="126.71" width="0.76" height="110.05" transform="translate(-65.76 3.8) rotate(-12.93)"/><rect class="cls-1" x="582.87" y="230.19" width="0.76" height="64.16" transform="translate(-87.88 235.28) rotate(-33)"/><polygon class="cls-1" points="357.84 616.13 353.39 548.09 354.15 548.03 358.6 616.08 357.84 616.13"/><path class="cls-2" d="M391.84,335a3.24,3.24,0,1,1-3.24-3.23A3.24,3.24,0,0,1,391.84,335Z" transform="translate(-39.13 -124.67)"/><path class="cls-2" d="M311.64,235.74a3.24,3.24,0,1,1-3.24-3.23A3.24,3.24,0,0,1,311.64,235.74Z" transform="translate(-39.13 -124.67)"/><path class="cls-2" d="M177.84,265.73a3.24,3.24,0,1,1-3.24-3.23A3.24,3.24,0,0,1,177.84,265.73Z" transform="translate(-39.13 -124.67)"/><path class="cls-2" d="M290.45,497.55a3.24,3.24,0,1,1-3.24-3.24A3.23,3.23,0,0,1,290.45,497.55Z" transform="translate(-39.13 -124.67)"/><path class="cls-2" d="M395.52,672.64a3.24,3.24,0,1,1-3.23-3.24A3.23,3.23,0,0,1,395.52,672.64Z" transform="translate(-39.13 -124.67)"/><path class="cls-2" d="M456.56,565.6a3.24,3.24,0,1,1-3.23-3.23A3.24,3.24,0,0,1,456.56,565.6Z" transform="translate(-39.13 -124.67)"/><path class="cls-2" d="M419.93,490.83a3.24,3.24,0,1,1-3.24-3.24A3.24,3.24,0,0,1,419.93,490.83Z" transform="translate(-39.13 -124.67)"/><path class="cls-2" d="M501.4,486.13a3.24,3.24,0,1,1-3.24-3.23A3.24,3.24,0,0,1,501.4,486.13Z" transform="translate(-39.13 -124.67)"/><path class="cls-2" d="M564.93,515.79a3.24,3.24,0,1,1-3.24-3.23A3.24,3.24,0,0,1,564.93,515.79Z" transform="translate(-39.13 -124.67)"/><path class="cls-2" d="M616.05,538.58a3.24,3.24,0,1,1-3.23-3.23A3.24,3.24,0,0,1,616.05,538.58Z" transform="translate(-39.13 -124.67)"/><path class="cls-2" d="M632,376.31a3.24,3.24,0,1,1-3.24-3.23A3.24,3.24,0,0,1,632,376.31Z" transform="translate(-39.13 -124.67)"/><path class="cls-2" d="M568.16,235.74a3.24,3.24,0,1,1-3.23-3.23A3.24,3.24,0,0,1,568.16,235.74Z" transform="translate(-39.13 -124.67)"/><path class="cls-2" d="M374.53,492.83a3.24,3.24,0,1,1-3.24-3.23A3.24,3.24,0,0,1,374.53,492.83Z" transform="translate(-39.13 -124.67)"/><line class="cls-1" x1="4.76" y1="242.32" x2="45.41" y2="379.75"/><line class="cls-1" x1="501.97" y1="4.37" x2="633.86" y2="70.51"/></svg>