<svg id="Layer_1" data-name="Layer 1" xmlns="http://www.w3.org/2000/svg" viewBox="0 0 400 400"><defs><style>.cls-1{fill:none;stroke:#000;stroke-miterlimit:10;stroke-width:0.5px;}.cls-2{fill:#231f20;}</style></defs><polyline class="cls-1" points="200.01 129.44 235.71 151.88 218.37 95.55 200.01 129.44"/><polygon class="cls-1" points="218.37 95.55 251.52 77.96 264.09 103.78 218.37 95.55"/><polyline class="cls-1" points="219.39 95.3 264.52 103.71 235.37 151.54 218.37 95.55"/><polygon class="cls-1" points="240.13 194.88 296.56 154.09 235.37 151.54 240.13 194.88"/><polygon class="cls-1" points="235.37 151.54 265.29 133.29 296.14 154.2 235.37 151.54"/><polygon class="cls-1" points="264.52 103.71 265.29 133.29 235.37 151.54 264.52 103.71"/><polygon class="cls-1" points="251.52 77.96 279.31 74.13 264.09 103.78 251.52 77.96"/><polyline class="cls-1" points="280.33 74.13 306.34 88.16 264.09 103.78 279.31 74.13"/><polygon class="cls-1" points="306.34 88.16 304.56 132.84 264.09 103.78 306.34 88.16"/><polygon class="cls-1" points="264.52 103.71 305.06 133.03 296.14 154.2 264.52 103.71"/><polygon class="cls-1" points="264.52 103.71 265.32 133.55 296.39 154.6 264.52 103.71"/><polygon class="cls-1" points="305.06 133.03 333.37 177.66 337.96 148.59 305.06 133.03"/><polygon class="cls-1" points="304.56 132.84 337.96 148.59 334.39 122.58 304.56 132.84"/><polygon class="cls-1" points="306.34 88.16 334.39 122.58 304.38 133.18 306.34 88.16"/><polygon class="cls-1" points="305.06 133.03 296.14 154.2 333.37 177.66 305.06 133.03"/><polygon class="cls-1" points="296.14 154.2 294.69 191.64 333.37 177.66 296.14 154.2"/><polygon class="cls-1" points="296.14 154.2 239.28 195.51 260.69 209.15 296.14 154.2"/><polygon class="cls-1" points="237.24 192.7 237.41 248.24 260.95 238.86 237.24 192.7"/><polygon class="cls-1" points="261.21 208.77 260.95 238.86 289.51 244.98 261.21 208.77"/><polygon class="cls-1" points="261.21 208.77 295.12 191.68 289.51 244.98 261.21 208.77"/><polygon class="cls-1" points="294.35 191.3 333.37 177.66 318.58 207.75 294.35 191.3"/><polygon class="cls-1" points="295.2 191.3 318.58 207.75 289.51 244.98 295.2 191.3"/><polyline class="cls-1" points="260.95 238.86 289.51 244.98 257.46 274.41 261.21 239.88 257.46 274.41 238.09 247.9"/><polygon class="cls-1" points="238.26 247.53 217.01 277.81 257.46 274.41 238.26 247.53"/><polyline class="cls-1" points="216.84 276.96 219 306.5 257.89 274.3 218.37 276.97"/><polygon class="cls-1" points="175.78 283.48 200.01 324.02 219 306.5 175.78 283.48"/><polygon class="cls-1" points="175.78 283.48 216.84 276.96 219 306.5 175.78 283.48"/><polygon class="cls-1" points="175.78 283.48 208.34 241.62 207 300.5 175.78 283.48"/><polygon class="cls-1" points="207.66 241.41 238.26 247.53 217.35 277.36 207.66 241.41"/><polygon class="cls-1" points="207.31 241.78 237.24 192.7 237.75 247.73 207.31 241.78"/><polyline class="cls-1" points="152.07 286.49 175.78 283.48 200.01 324.02 149.77 286.8"/><polygon class="cls-1" points="158.02 259.64 149.77 286.8 175.78 283.48 158.02 259.64"/><polygon class="cls-1" points="158.19 260.53 208.34 241.62 175.78 283.48 158.19 260.53"/><polygon class="cls-1" points="132.94 269.97 157.85 260.67 149.77 286.8 132.94 269.97"/><polygon class="cls-1" points="136.77 229.42 132.94 269.97 158.19 260.53 136.77 229.42"/><polygon class="cls-1" points="132.69 194.56 158.19 260.53 136.77 229.42 132.69 194.56"/><polygon class="cls-1" points="132.69 194.56 179.78 218.5 158.19 260.53 132.69 194.56"/><polygon class="cls-1" points="179.78 217.82 208.34 241.62 158.19 260.53 179.78 217.82"/><polygon class="cls-1" points="179.35 218.2 196.95 167.46 207.66 241.41 179.35 218.2"/><polygon class="cls-1" points="196.94 168 237.24 192.7 207.49 242.29 196.94 168"/><polygon class="cls-1" points="198.52 127.23 196.94 168 240.13 194.88 198.52 127.23"/><polygon class="cls-1" points="132.86 194.05 102.09 237.33 136.77 229.42 132.86 194.05"/><polygon class="cls-1" points="102.09 237.33 136.94 229.06 132.94 269.97 102.09 237.33"/><polygon class="cls-1" points="103.45 172.64 102.34 200.86 132.69 194.56 103.45 172.64"/><polyline class="cls-1" points="124.53 158.53 167.88 160.74 132.69 195 102.94 172.29 124.53 158.53 132.18 193.72"/><polygon class="cls-1" points="167.88 160.74 174.17 189.81 132.69 195 167.88 160.74"/><polyline class="cls-1" points="174.17 189.81 133.37 194.9 179.35 218.2 175.19 193.37"/><polygon class="cls-1" points="174.17 189.81 196.95 167.46 179.35 218.2 174.17 189.81"/><polygon class="cls-1" points="102.26 200 102.09 237.33 71.23 191.94 102.26 200"/><polygon class="cls-1" points="102.77 200.34 63.33 158.01 71.23 191.94 102.77 200.34"/><polygon class="cls-1" points="63.33 158.53 97.33 123.77 103.87 172.81 63.33 158.53"/><polygon class="cls-1" points="63.84 158.52 103.7 172.22 102.26 200 63.84 158.52"/><polygon class="cls-1" points="97.5 124.36 123.76 159.04 103.7 172.22 97.5 124.36"/><polygon class="cls-1" points="97.33 123.77 68.43 114.93 63.33 158.53 97.33 123.77"/><polygon class="cls-1" points="68.43 114.93 91.63 86.37 97.33 123.77 68.43 114.93"/><polygon class="cls-1" points="91.63 86.37 129.12 74.64 97.5 124.36 91.63 86.37"/><polygon class="cls-1" points="129.12 74.64 149.01 78.47 133.71 112.13 129.12 74.64"/><polyline class="cls-1" points="97.5 124.36 129.12 74.64 133.71 112.13 98.77 125.13"/><polygon class="cls-1" points="149.01 78.47 177.06 93.77 133.71 112.13 149.01 78.47"/><polygon class="cls-1" points="177.06 93.77 198.52 127.23 162.52 129.21 177.06 93.77"/><polygon class="cls-1" points="133.71 112.13 177.06 93.77 162.52 129.21 133.71 112.13"/><polygon class="cls-1" points="97.33 124.88 133.71 112.13 123.76 159.04 97.33 124.88"/><polygon class="cls-1" points="133.71 112.13 162.52 129.21 123.76 159.04 133.71 112.13"/><polygon class="cls-1" points="162.52 129.21 198.52 127.23 196.95 167.46 162.52 129.21"/><polygon class="cls-1" points="167.88 160.74 196.95 167.46 174.17 189.81 167.88 160.74"/><polyline class="cls-1" points="128.95 155.13 162.52 129.21 167.88 160.74 124.53 158.53"/><path class="cls-2" d="M198.89,167.87a2.25,2.25,0,1,1-2.25-2.25A2.25,2.25,0,0,1,198.89,167.87Z"/><path class="cls-2" d="M126.78,158.53a2.25,2.25,0,1,1-2.25-2.25A2.25,2.25,0,0,1,126.78,158.53Z"/><path class="cls-2" d="M263.88,208.27a2.17,2.17,0,1,1-2.17-2.17A2.17,2.17,0,0,1,263.88,208.27Z"/><path class="cls-2" d="M219.09,277a2.25,2.25,0,1,1-2.25-2.25A2.25,2.25,0,0,1,219.09,277Z"/><path class="cls-2" d="M307.3,132.33a2,2,0,1,1-2-2A2,2,0,0,1,307.3,132.33Z"/><path class="cls-2" d="M65.81,158.52a2,2,0,1,1-2-2A2,2,0,0,1,65.81,158.52Z"/><path class="cls-2" d="M202,324a2,2,0,1,1-2-2A2,2,0,0,1,202,324Z"/><path class="cls-2" d="M290.86,245a1.35,1.35,0,1,1-1.35-1.36A1.35,1.35,0,0,1,290.86,245Z"/><path class="cls-2" d="M259.24,274.3a1.35,1.35,0,1,1-1.35-1.35A1.34,1.34,0,0,1,259.24,274.3Z"/><path class="cls-2" d="M134.3,270a1.36,1.36,0,1,1-1.36-1.36A1.36,1.36,0,0,1,134.3,270Z"/><path class="cls-2" d="M334.72,177.66a1.35,1.35,0,1,1-1.35-1.35A1.34,1.34,0,0,1,334.72,177.66Z"/><path class="cls-2" d="M103.44,237.33a1.35,1.35,0,1,1-1.35-1.36A1.35,1.35,0,0,1,103.44,237.33Z"/><path class="cls-2" d="M307.69,88.16a1.35,1.35,0,1,1-1.35-1.36A1.35,1.35,0,0,1,307.69,88.16Z"/><path class="cls-2" d="M130.64,74.64a1.52,1.52,0,1,1-1.52-1.52A1.52,1.52,0,0,1,130.64,74.64Z"/><path class="cls-2" d="M93.16,86.37a1.53,1.53,0,1,1-1.53-1.52A1.53,1.53,0,0,1,93.16,86.37Z"/><path class="cls-2" d="M201.19,128.67a1.53,1.53,0,0,1-3.05,0,1.53,1.53,0,1,1,3.05,0Z"/><path class="cls-2" d="M169.11,160.74a1.24,1.24,0,1,1-1.23-1.24A1.24,1.24,0,0,1,169.11,160.74Z"/><path class="cls-2" d="M237.24,150.67a1.24,1.24,0,1,1-1.24-1.24A1.24,1.24,0,0,1,237.24,150.67Z"/><path class="cls-2" d="M133.92,194.56a1.24,1.24,0,1,1-1.23-1.23A1.23,1.23,0,0,1,133.92,194.56Z"/><path class="cls-2" d="M262.19,238.86a1.24,1.24,0,1,1-1.24-1.24A1.24,1.24,0,0,1,262.19,238.86Z"/><path class="cls-2" d="M103.49,200a1.24,1.24,0,1,1-1.23-1.23A1.23,1.23,0,0,1,103.49,200Z"/><path class="cls-2" d="M219.91,95.43a1.24,1.24,0,1,1-1.24-1.24A1.25,1.25,0,0,1,219.91,95.43Z"/><path class="cls-2" d="M177.9,94.24A1.24,1.24,0,1,1,176.67,93,1.24,1.24,0,0,1,177.9,94.24Z"/><path class="cls-2" d="M208.67,278.33a1.24,1.24,0,1,1-1.24-1.23A1.24,1.24,0,0,1,208.67,278.33Z"/><path class="cls-2" d="M296.57,191.76a1.24,1.24,0,1,1-1.24-1.23A1.23,1.23,0,0,1,296.57,191.76Z"/><path class="cls-2" d="M266.52,133.29a1.24,1.24,0,1,1-1.24-1.24A1.24,1.24,0,0,1,266.52,133.29Z"/><path class="cls-2" d="M134.67,111.67a1.24,1.24,0,1,1-1.24-1.24A1.24,1.24,0,0,1,134.67,111.67Z"/><path class="cls-2" d="M105,172a1.24,1.24,0,1,1-1.24-1.24A1.24,1.24,0,0,1,105,172Z"/><path class="cls-2" d="M163.76,129.21a1.24,1.24,0,1,1-1.24-1.24A1.25,1.25,0,0,1,163.76,129.21Z"/><path class="cls-2" d="M297.81,154.33a1.24,1.24,0,1,1-1.24-1.23A1.24,1.24,0,0,1,297.81,154.33Z"/><path class="cls-2" d="M175.4,189.81a1.24,1.24,0,1,1-1.23-1.23A1.24,1.24,0,0,1,175.4,189.81Z"/><path class="cls-2" d="M160,260.53a1.78,1.78,0,1,1-1.77-1.78A1.78,1.78,0,0,1,160,260.53Z"/><path class="cls-2" d="M282,74.13a1.69,1.69,0,1,1-1.69-1.69A1.69,1.69,0,0,1,282,74.13Z"/><path class="cls-2" d="M266.33,103.33A1.38,1.38,0,1,1,265,102,1.37,1.37,0,0,1,266.33,103.33Z"/><path class="cls-2" d="M335.52,122a1.52,1.52,0,1,1-1.52-1.52A1.52,1.52,0,0,1,335.52,122Z"/><path class="cls-2" d="M181.3,218.5a1.53,1.53,0,1,1-1.52-1.52A1.52,1.52,0,0,1,181.3,218.5Z"/><path class="cls-2" d="M70.14,115.28a1.71,1.71,0,1,1-1.71-1.7A1.71,1.71,0,0,1,70.14,115.28Z"/><path class="cls-2" d="M100.05,124a2.22,2.22,0,1,1-2.22-2.21A2.22,2.22,0,0,1,100.05,124Z"/><path class="cls-2" d="M241.76,193.14a3.07,3.07,0,1,1-3.07-3.07A3.06,3.06,0,0,1,241.76,193.14Z"/></svg>