<?xml version="1.0"?><svg xmlns="http://www.w3.org/2000/svg"  viewBox="0 0 100 100" width="100px" height="100px">    <path d="M 49.609375 17.404297 C 49.090514 17.416004 48.568672 17.453578 48.044922 17.517578 C 41.583922 18.307578 36.243594 23.314312 35.058594 29.695312 C 34.849594 30.817313 34.762828 31.942594 34.798828 33.058594 C 33.247828 32.090594 31.442703 31.560547 29.595703 31.560547 C 24.803703 31.560547 20.746109 35.034297 19.912109 39.654297 C 17.740109 39.350297 15.602109 39.590234 13.537109 40.365234 C 8.4641094 42.270234 4.9188906 47.097859 4.7128906 52.380859 C 4.5688906 56.062859 5.8924531 59.548266 8.4394531 62.197266 C 10.987453 64.847266 14.415797 66.306641 18.091797 66.306641 C 18.570797 66.306641 19.066578 66.273078 19.642578 66.205078 C 20.103578 66.273078 20.524781 66.306641 20.925781 66.306641 L 46.652344 66.306641 C 47.204344 66.306641 47.652344 65.858641 47.652344 65.306641 C 47.652344 64.754641 47.204344 64.306641 46.652344 64.306641 L 20.925781 64.306641 C 20.590781 64.306641 20.226453 64.274984 19.814453 64.208984 C 19.720453 64.194984 19.62625 64.194078 19.53125 64.205078 C 18.98125 64.275078 18.523797 64.306641 18.091797 64.306641 C 14.965797 64.306641 12.048859 63.064547 9.8808594 60.810547 C 7.7138594 58.556547 6.5889375 55.590031 6.7109375 52.457031 C 6.8859375 47.969031 9.9121875 43.861375 14.242188 42.234375 C 16.280187 41.469375 18.407547 41.324781 20.560547 41.800781 C 20.845547 41.863781 21.143953 41.799047 21.376953 41.623047 C 21.609953 41.449047 21.753438 41.179672 21.773438 40.888672 C 22.042437 36.777672 25.478703 33.558594 29.595703 33.558594 C 31.794703 33.558594 33.83675 34.451219 35.34375 36.074219 C 35.64875 36.402219 36.133203 36.487203 36.533203 36.283203 C 36.931203 36.078203 37.145641 35.634313 37.056641 35.195312 C 36.714641 33.511313 36.702438 31.783594 37.023438 30.058594 C 38.051437 24.526594 42.683109 20.183047 48.287109 19.498047 C 51.927109 19.055047 55.471484 20.072187 58.271484 22.367188 C 61.042484 24.639187 62.787594 27.987781 63.058594 31.550781 C 63.089594 31.965781 63.374437 32.315594 63.773438 32.433594 C 64.172438 32.551594 64.603516 32.410125 64.853516 32.078125 C 67.117516 29.081125 70.556109 27.363281 74.287109 27.363281 C 80.812109 27.363281 86.121094 32.670313 86.121094 39.195312 C 86.121094 39.637313 86.088531 40.105016 86.019531 40.666016 C 85.984683 40.947525 86.076555 41.211121 86.244141 41.416016 C 82.734246 41.122519 79.375884 42.751361 77.90625 45.792969 C 77.66725 46.290969 77.484328 46.813563 77.361328 47.351562 C 77.299328 47.620562 77.467328 47.889172 77.736328 47.951172 C 77.774328 47.960172 77.812609 47.964844 77.849609 47.964844 C 78.077609 47.964844 78.282937 47.808172 78.335938 47.576172 C 78.441937 47.111172 78.601594 46.658516 78.808594 46.228516 C 80.523594 42.676516 85.215578 41.341953 89.267578 43.251953 C 89.518578 43.370953 89.815594 43.263672 89.933594 43.013672 C 89.943902 42.991646 89.942319 42.967928 89.949219 42.945312 C 93.500383 44.909948 95.855469 48.69858 95.855469 52.914062 C 95.855469 59.195062 90.745844 64.306641 84.464844 64.306641 C 84.375844 64.306641 84.290125 64.298969 84.203125 64.292969 L 83.972656 64.279297 C 83.938656 64.278297 83.902187 64.27925 83.867188 64.28125 L 83.746094 64.289062 C 83.632094 64.297063 83.518344 64.306641 83.402344 64.306641 L 54.654297 64.306641 C 54.102297 64.306641 53.654297 64.754641 53.654297 65.306641 C 53.654297 65.858641 54.102297 66.306641 54.654297 66.306641 L 83.400391 66.306641 C 83.562391 66.306641 83.722813 66.296156 83.882812 66.285156 L 83.935547 66.28125 L 84.068359 66.289062 C 84.199359 66.298063 84.330844 66.306641 84.464844 66.306641 C 91.847844 66.306641 97.855422 60.300969 97.857422 52.917969 C 97.857422 46.914969 93.80275 41.629391 88.09375 40.025391 C 88.11275 39.737391 88.121094 39.464266 88.121094 39.197266 C 88.121094 31.570266 81.916062 25.365234 74.289062 25.365234 C 70.668063 25.365234 67.283609 26.74775 64.724609 29.21875 C 63.981609 25.94975 62.160016 22.970219 59.541016 20.824219 C 56.717391 18.510719 53.241404 17.322348 49.609375 17.404297 z M 46.603516 37.496094 C 42.13631 37.619646 38.445312 40.855391 38.164062 45.048828 C 38.155063 45.174828 38.150438 45.301734 38.148438 45.427734 C 37.264437 44.795734 36.203453 44.41875 35.064453 44.34375 C 32.288453 44.16475 29.802828 45.884797 29.173828 48.341797 C 28.792828 48.262797 28.411203 48.210547 28.033203 48.185547 C 23.754203 47.904547 20.058969 50.887937 19.792969 54.835938 C 19.773969 55.111938 19.982813 55.350141 20.257812 55.369141 C 20.269813 55.370141 20.280016 55.369141 20.291016 55.369141 C 20.552016 55.369141 20.771062 55.168297 20.789062 54.904297 C 21.017062 51.505297 24.23575 48.945594 27.96875 49.183594 C 28.45275 49.215594 28.944641 49.298641 29.431641 49.431641 C 29.569641 49.468641 29.719844 49.444234 29.839844 49.365234 C 29.959844 49.286234 30.038594 49.160578 30.058594 49.017578 C 30.367594 46.794578 32.534047 45.180797 34.998047 45.341797 C 36.300047 45.426797 37.523516 46.013219 38.353516 46.949219 C 38.500516 47.115219 38.739453 47.164313 38.939453 47.070312 C 39.139453 46.976313 39.254703 46.761969 39.220703 46.542969 C 39.148703 46.071969 39.128156 45.591234 39.160156 45.115234 C 39.423156 41.191234 43.124453 38.228719 47.439453 38.511719 C 47.714453 38.517719 47.953656 38.320922 47.972656 38.044922 C 47.990656 37.768922 47.780859 37.531672 47.505859 37.513672 C 47.201922 37.493609 46.901329 37.487857 46.603516 37.496094 z M 50.740234 49.753906 C 49.831234 49.753906 49.030172 50.412594 48.701172 51.433594 C 48.669172 51.532594 48.654297 51.636234 48.654297 51.740234 L 48.654297 79.451172 L 44.126953 74.667969 C 43.777953 74.289969 43.274859 74.066406 42.755859 74.066406 C 42.236859 74.066406 41.734953 74.289734 41.376953 74.677734 C 40.663953 75.449734 40.663953 76.659641 41.376953 77.431641 L 49.378906 85.740234 C 49.510906 85.884234 49.684484 86.011187 49.896484 86.117188 C 49.937484 86.140187 50.004125 86.171219 50.078125 86.199219 C 50.202125 86.242219 50.308016 86.269109 50.416016 86.287109 C 50.488016 86.307109 50.601188 86.333984 50.742188 86.333984 C 50.820188 86.333984 50.890219 86.325453 50.949219 86.314453 C 50.982219 86.316453 51.017781 86.318359 51.050781 86.318359 C 51.574781 86.318359 52.057156 86.107609 52.410156 85.724609 L 60.152344 77.341797 C 60.865344 76.569797 60.865344 75.359891 60.152344 74.587891 C 59.794344 74.199891 59.290484 73.976562 58.771484 73.976562 C 58.252484 73.976562 57.750578 74.199891 57.392578 74.587891 L 52.654297 79.716797 L 52.654297 51.740234 C 52.653297 50.644234 51.795234 49.753906 50.740234 49.753906 z M 50.740234 50.753906 C 51.242234 50.753906 51.652344 51.197234 51.652344 51.740234 L 51.652344 82.275391 L 58.125 75.267578 C 58.302 75.075578 58.535531 74.978516 58.769531 74.978516 C 59.003531 74.978516 59.237062 75.075578 59.414062 75.267578 C 59.769062 75.651578 59.769063 76.280062 59.414062 76.664062 L 51.673828 85.046875 C 51.500828 85.234875 51.275828 85.318359 51.048828 85.318359 C 50.994828 85.318359 50.938766 85.313687 50.884766 85.304688 C 50.880766 85.305688 50.877047 85.305641 50.873047 85.306641 C 50.827047 85.314641 50.787234 85.335938 50.740234 85.335938 C 50.695234 85.335938 50.657281 85.315594 50.613281 85.308594 C 50.554281 85.301594 50.4945 85.289531 50.4375 85.269531 C 50.4035 85.256531 50.371844 85.241609 50.339844 85.224609 C 50.251844 85.180609 50.168703 85.127828 50.095703 85.048828 L 42.107422 76.753906 C 41.752422 76.369906 41.752422 75.741422 42.107422 75.357422 C 42.284422 75.165422 42.519906 75.068359 42.753906 75.068359 C 42.987906 75.068359 43.221438 75.165422 43.398438 75.357422 L 49.650391 81.962891 L 49.650391 51.740234 C 49.828391 51.197234 50.238234 50.753906 50.740234 50.753906 z"/></svg>